<?xml version="1.0" encoding="utf-8"?>
<!-- Generator: Adobe Illustrator 23.1.0, SVG Export Plug-In . SVG Version: 6.00 Build 0)  -->
<svg version="1.1" id="Layer_1" xmlns="http://www.w3.org/2000/svg" xmlns:xlink="http://www.w3.org/1999/xlink" x="0px" y="0px"
	 viewBox="0 0 434 154" style="enable-background:new 0 0 434 154;" xml:space="preserve">
<style type="text/css">
	.st0{fill:url(#SVGID_1_);}
	.st1{fill:url(#SVGID_2_);}
	.st2{fill:url(#SVGID_3_);}
	.st3{fill:url(#SVGID_4_);}
	.st4{fill:url(#SVGID_5_);}
	.st5{fill:url(#SVGID_6_);}
	.st6{fill:url(#SVGID_7_);}
	.st7{fill:url(#SVGID_8_);}
	.st8{fill:url(#SVGID_9_);}
	.st9{fill:url(#SVGID_10_);}
	.st10{fill:url(#SVGID_11_);}
	.st11{fill:url(#SVGID_12_);}
	.st12{fill:url(#SVGID_13_);}
</style>
<g>
	<g>
		<linearGradient id="SVGID_1_" gradientUnits="userSpaceOnUse" x1="6.8643" y1="80.9094" x2="431.3018" y2="80.9094">
			<stop  offset="7.859427e-07" style="stop-color:#FFD215"/>
			<stop  offset="5.856320e-02" style="stop-color:#FFCD18"/>
			<stop  offset="0.1275" style="stop-color:#FFBF23"/>
			<stop  offset="0.2016" style="stop-color:#FFA733"/>
			<stop  offset="0.2795" style="stop-color:#FF864B"/>
			<stop  offset="0.3602" style="stop-color:#FF5B69"/>
			<stop  offset="0.4421" style="stop-color:#FF288E"/>
			<stop  offset="0.499" style="stop-color:#FF00AA"/>
			<stop  offset="0.509" style="stop-color:#F40FAF"/>
			<stop  offset="0.5454" style="stop-color:#CE41BD"/>
			<stop  offset="0.5846" style="stop-color:#AC6ECB"/>
			<stop  offset="0.6256" style="stop-color:#8F95D6"/>
			<stop  offset="0.6689" style="stop-color:#76B6E0"/>
			<stop  offset="0.7152" style="stop-color:#62D1E8"/>
			<stop  offset="0.7657" style="stop-color:#52E5EE"/>
			<stop  offset="0.8224" style="stop-color:#47F4F3"/>
			<stop  offset="0.8904" style="stop-color:#41FCF5"/>
			<stop  offset="1" style="stop-color:#3FFFF6"/>
		</linearGradient>
		<path class="st0" d="M20.4,13.2h16c7.2,0,12.2,1.4,15.8,5.1c2.6,2.6,3.9,6,3.9,10.4c0,12.5-10.7,19.7-24.5,19.7h-9.6L18,63.6H6.9
			L20.4,13.2z M32.2,38.6c7.3,0,12.3-3.3,12.3-9c0-1.7-0.6-3.1-1.7-4.2c-1.5-1.5-3.6-2.2-6.9-2.2h-7.2l-4.1,15.4H32.2z"/>
		<linearGradient id="SVGID_2_" gradientUnits="userSpaceOnUse" x1="6.8643" y1="80.9094" x2="431.3018" y2="80.9094">
			<stop  offset="7.859427e-07" style="stop-color:#FFD215"/>
			<stop  offset="5.856320e-02" style="stop-color:#FFCD18"/>
			<stop  offset="0.1275" style="stop-color:#FFBF23"/>
			<stop  offset="0.2016" style="stop-color:#FFA733"/>
			<stop  offset="0.2795" style="stop-color:#FF864B"/>
			<stop  offset="0.3602" style="stop-color:#FF5B69"/>
			<stop  offset="0.4421" style="stop-color:#FF288E"/>
			<stop  offset="0.499" style="stop-color:#FF00AA"/>
			<stop  offset="0.509" style="stop-color:#F40FAF"/>
			<stop  offset="0.5454" style="stop-color:#CE41BD"/>
			<stop  offset="0.5846" style="stop-color:#AC6ECB"/>
			<stop  offset="0.6256" style="stop-color:#8F95D6"/>
			<stop  offset="0.6689" style="stop-color:#76B6E0"/>
			<stop  offset="0.7152" style="stop-color:#62D1E8"/>
			<stop  offset="0.7657" style="stop-color:#52E5EE"/>
			<stop  offset="0.8224" style="stop-color:#47F4F3"/>
			<stop  offset="0.8904" style="stop-color:#41FCF5"/>
			<stop  offset="1" style="stop-color:#3FFFF6"/>
		</linearGradient>
		<path class="st1" d="M53.2,57.4l6.3-6.6c4,4,8.4,5.2,11.8,5.2c2.9,0,4.6-1.2,4.6-3.4c0-1.4-1.8-2.4-4.5-3.6
			c-6-2.6-11.2-5.1-11.2-11.3c0-7.7,5.9-13.5,15.5-13.5c6.3,0,12,2.7,15.2,5.5L85,36.7c-3.7-3-6.9-4.1-10.1-4.1
			c-2.7,0-4.2,1.2-4.2,3.2c0,1.5,1.9,2.6,5.1,4c5,2.2,10.6,4.9,10.6,10.9c0,8.4-6.6,13.6-15.8,13.6C64.7,64.4,57.7,62.2,53.2,57.4z"
			/>
		<linearGradient id="SVGID_3_" gradientUnits="userSpaceOnUse" x1="6.8643" y1="80.9094" x2="431.3018" y2="80.9094">
			<stop  offset="7.859427e-07" style="stop-color:#FFD215"/>
			<stop  offset="5.856320e-02" style="stop-color:#FFCD18"/>
			<stop  offset="0.1275" style="stop-color:#FFBF23"/>
			<stop  offset="0.2016" style="stop-color:#FFA733"/>
			<stop  offset="0.2795" style="stop-color:#FF864B"/>
			<stop  offset="0.3602" style="stop-color:#FF5B69"/>
			<stop  offset="0.4421" style="stop-color:#FF288E"/>
			<stop  offset="0.499" style="stop-color:#FF00AA"/>
			<stop  offset="0.509" style="stop-color:#F40FAF"/>
			<stop  offset="0.5454" style="stop-color:#CE41BD"/>
			<stop  offset="0.5846" style="stop-color:#AC6ECB"/>
			<stop  offset="0.6256" style="stop-color:#8F95D6"/>
			<stop  offset="0.6689" style="stop-color:#76B6E0"/>
			<stop  offset="0.7152" style="stop-color:#62D1E8"/>
			<stop  offset="0.7657" style="stop-color:#52E5EE"/>
			<stop  offset="0.8224" style="stop-color:#47F4F3"/>
			<stop  offset="0.8904" style="stop-color:#41FCF5"/>
			<stop  offset="1" style="stop-color:#3FFFF6"/>
		</linearGradient>
		<path class="st2" d="M88,72.6l5.8-7.9c1.2,0.9,2.8,1.5,4.2,1.5c1.7,0,2.7-0.4,4.2-2.4L97.6,25h11.2l1.8,26.2L125,25h11.8
			l-23.9,39.5c-5,7.8-9.4,10.8-15.9,10.8C93,75.3,90.4,74.3,88,72.6z"/>
		<linearGradient id="SVGID_4_" gradientUnits="userSpaceOnUse" x1="6.8643" y1="80.9094" x2="431.3018" y2="80.9094">
			<stop  offset="7.859427e-07" style="stop-color:#FFD215"/>
			<stop  offset="5.856320e-02" style="stop-color:#FFCD18"/>
			<stop  offset="0.1275" style="stop-color:#FFBF23"/>
			<stop  offset="0.2016" style="stop-color:#FFA733"/>
			<stop  offset="0.2795" style="stop-color:#FF864B"/>
			<stop  offset="0.3602" style="stop-color:#FF5B69"/>
			<stop  offset="0.4421" style="stop-color:#FF288E"/>
			<stop  offset="0.499" style="stop-color:#FF00AA"/>
			<stop  offset="0.509" style="stop-color:#F40FAF"/>
			<stop  offset="0.5454" style="stop-color:#CE41BD"/>
			<stop  offset="0.5846" style="stop-color:#AC6ECB"/>
			<stop  offset="0.6256" style="stop-color:#8F95D6"/>
			<stop  offset="0.6689" style="stop-color:#76B6E0"/>
			<stop  offset="0.7152" style="stop-color:#62D1E8"/>
			<stop  offset="0.7657" style="stop-color:#52E5EE"/>
			<stop  offset="0.8224" style="stop-color:#47F4F3"/>
			<stop  offset="0.8904" style="stop-color:#41FCF5"/>
			<stop  offset="1" style="stop-color:#3FFFF6"/>
		</linearGradient>
		<path class="st3" d="M136.5,47c0-12.6,10.4-22.8,22.8-22.8c8.5,0,13.2,3.9,15.8,8.5l-8.4,5.9c-1.9-3-4-5-8.4-5
			c-5.8,0-11.1,6.3-11.1,13.4c0,5,3.3,8.1,7.6,8.1c3.4,0,5.8-1.4,8.7-3.8l5.6,7.1c-4,3.6-8.1,6-14.7,6C144,64.4,136.5,57.5,136.5,47
			z"/>
		<linearGradient id="SVGID_5_" gradientUnits="userSpaceOnUse" x1="6.8643" y1="80.9094" x2="431.3018" y2="80.9094">
			<stop  offset="7.859427e-07" style="stop-color:#FFD215"/>
			<stop  offset="5.856320e-02" style="stop-color:#FFCD18"/>
			<stop  offset="0.1275" style="stop-color:#FFBF23"/>
			<stop  offset="0.2016" style="stop-color:#FFA733"/>
			<stop  offset="0.2795" style="stop-color:#FF864B"/>
			<stop  offset="0.3602" style="stop-color:#FF5B69"/>
			<stop  offset="0.4421" style="stop-color:#FF288E"/>
			<stop  offset="0.499" style="stop-color:#FF00AA"/>
			<stop  offset="0.509" style="stop-color:#F40FAF"/>
			<stop  offset="0.5454" style="stop-color:#CE41BD"/>
			<stop  offset="0.5846" style="stop-color:#AC6ECB"/>
			<stop  offset="0.6256" style="stop-color:#8F95D6"/>
			<stop  offset="0.6689" style="stop-color:#76B6E0"/>
			<stop  offset="0.7152" style="stop-color:#62D1E8"/>
			<stop  offset="0.7657" style="stop-color:#52E5EE"/>
			<stop  offset="0.8224" style="stop-color:#47F4F3"/>
			<stop  offset="0.8904" style="stop-color:#41FCF5"/>
			<stop  offset="1" style="stop-color:#3FFFF6"/>
		</linearGradient>
		<path class="st4" d="M187.6,11h10.9l-4.8,18c2.7-2.4,6.2-4.8,10.5-4.8c6.9,0,11.4,4.2,11.4,11.2c0,2.2-0.6,4.9-1.3,7.3l-5.5,20.7
			h-10.9l5.7-21.2c0.3-1.1,0.5-2.5,0.5-3.5c0-3.1-1.9-4.8-5.3-4.8c-4.3,0-7.1,3.1-8.4,7.7l-5.8,21.7h-10.9L187.6,11z"/>
		<linearGradient id="SVGID_6_" gradientUnits="userSpaceOnUse" x1="6.8643" y1="80.9094" x2="431.3018" y2="80.9094">
			<stop  offset="7.859427e-07" style="stop-color:#FFD215"/>
			<stop  offset="5.856320e-02" style="stop-color:#FFCD18"/>
			<stop  offset="0.1275" style="stop-color:#FFBF23"/>
			<stop  offset="0.2016" style="stop-color:#FFA733"/>
			<stop  offset="0.2795" style="stop-color:#FF864B"/>
			<stop  offset="0.3602" style="stop-color:#FF5B69"/>
			<stop  offset="0.4421" style="stop-color:#FF288E"/>
			<stop  offset="0.499" style="stop-color:#FF00AA"/>
			<stop  offset="0.509" style="stop-color:#F40FAF"/>
			<stop  offset="0.5454" style="stop-color:#CE41BD"/>
			<stop  offset="0.5846" style="stop-color:#AC6ECB"/>
			<stop  offset="0.6256" style="stop-color:#8F95D6"/>
			<stop  offset="0.6689" style="stop-color:#76B6E0"/>
			<stop  offset="0.7152" style="stop-color:#62D1E8"/>
			<stop  offset="0.7657" style="stop-color:#52E5EE"/>
			<stop  offset="0.8224" style="stop-color:#47F4F3"/>
			<stop  offset="0.8904" style="stop-color:#41FCF5"/>
			<stop  offset="1" style="stop-color:#3FFFF6"/>
		</linearGradient>
		<path class="st5" d="M75.6,128.9c0-16.1,13.7-30.2,30.7-30.2c9.6,0,16.1,4.1,20.2,10.7l-9.1,6.4c-3-4.2-6.3-6.9-12.4-6.9
			c-9.2,0-17.8,8.8-17.8,19.5c0,7.3,5.1,12.2,12.3,12.2c4.9,0,8.1-1.9,11.8-5l7.2,7.5c-4.8,4.5-10.7,7.7-19.1,7.7
			C85.6,150.8,75.6,142.3,75.6,128.9z"/>
		<linearGradient id="SVGID_7_" gradientUnits="userSpaceOnUse" x1="6.8643" y1="80.9094" x2="431.3018" y2="80.9094">
			<stop  offset="7.859427e-07" style="stop-color:#FFD215"/>
			<stop  offset="5.856320e-02" style="stop-color:#FFCD18"/>
			<stop  offset="0.1275" style="stop-color:#FFBF23"/>
			<stop  offset="0.2016" style="stop-color:#FFA733"/>
			<stop  offset="0.2795" style="stop-color:#FF864B"/>
			<stop  offset="0.3602" style="stop-color:#FF5B69"/>
			<stop  offset="0.4421" style="stop-color:#FF288E"/>
			<stop  offset="0.499" style="stop-color:#FF00AA"/>
			<stop  offset="0.509" style="stop-color:#F40FAF"/>
			<stop  offset="0.5454" style="stop-color:#CE41BD"/>
			<stop  offset="0.5846" style="stop-color:#AC6ECB"/>
			<stop  offset="0.6256" style="stop-color:#8F95D6"/>
			<stop  offset="0.6689" style="stop-color:#76B6E0"/>
			<stop  offset="0.7152" style="stop-color:#62D1E8"/>
			<stop  offset="0.7657" style="stop-color:#52E5EE"/>
			<stop  offset="0.8224" style="stop-color:#47F4F3"/>
			<stop  offset="0.8904" style="stop-color:#41FCF5"/>
			<stop  offset="1" style="stop-color:#3FFFF6"/>
		</linearGradient>
		<path class="st6" d="M123.6,140.3c0-8.9,7.3-13.9,16.6-13.9c4.2,0,7.6,0.7,10.9,1.7l0.1-0.5c0.2-0.9,0.4-1.7,0.4-2.9
			c0-2.7-1.9-4.5-7.3-4.5c-3.7,0-7.5,0.9-10.3,2.1l-1.7-8.6c4-1.7,8.9-2.7,14.3-2.7c10.4,0,15.6,4.3,15.6,11.9c0,2-0.4,3.9-0.9,5.8
			l-5.7,21.3h-10.6l1.2-4.5c-3.1,3.3-7,5.2-11.5,5.2C128.1,150.7,123.6,146.4,123.6,140.3z M149.2,135.4l0.3-1
			c-1.9-0.7-4.5-1.4-7.2-1.4c-4.5,0-7.8,2.3-7.8,6c0,2.4,1.9,4.1,5,4.1C144,143.2,148,139.6,149.2,135.4z"/>
		<linearGradient id="SVGID_8_" gradientUnits="userSpaceOnUse" x1="6.8643" y1="80.9094" x2="431.3018" y2="80.9094">
			<stop  offset="7.859427e-07" style="stop-color:#FFD215"/>
			<stop  offset="5.856320e-02" style="stop-color:#FFCD18"/>
			<stop  offset="0.1275" style="stop-color:#FFBF23"/>
			<stop  offset="0.2016" style="stop-color:#FFA733"/>
			<stop  offset="0.2795" style="stop-color:#FF864B"/>
			<stop  offset="0.3602" style="stop-color:#FF5B69"/>
			<stop  offset="0.4421" style="stop-color:#FF288E"/>
			<stop  offset="0.499" style="stop-color:#FF00AA"/>
			<stop  offset="0.509" style="stop-color:#F40FAF"/>
			<stop  offset="0.5454" style="stop-color:#CE41BD"/>
			<stop  offset="0.5846" style="stop-color:#AC6ECB"/>
			<stop  offset="0.6256" style="stop-color:#8F95D6"/>
			<stop  offset="0.6689" style="stop-color:#76B6E0"/>
			<stop  offset="0.7152" style="stop-color:#62D1E8"/>
			<stop  offset="0.7657" style="stop-color:#52E5EE"/>
			<stop  offset="0.8224" style="stop-color:#47F4F3"/>
			<stop  offset="0.8904" style="stop-color:#41FCF5"/>
			<stop  offset="1" style="stop-color:#3FFFF6"/>
		</linearGradient>
		<path class="st7" d="M175.5,111.4h10.9l-2.1,7.8c3.9-5.7,8.4-9,14.7-8.5l-3.1,11.4h-0.6c-7.3,0-12.9,4.2-15.6,14.2l-3.7,13.7
			h-10.9L175.5,111.4z"/>
		<linearGradient id="SVGID_9_" gradientUnits="userSpaceOnUse" x1="6.8643" y1="80.9094" x2="431.3018" y2="80.9094">
			<stop  offset="7.859427e-07" style="stop-color:#FFD215"/>
			<stop  offset="5.856320e-02" style="stop-color:#FFCD18"/>
			<stop  offset="0.1275" style="stop-color:#FFBF23"/>
			<stop  offset="0.2016" style="stop-color:#FFA733"/>
			<stop  offset="0.2795" style="stop-color:#FF864B"/>
			<stop  offset="0.3602" style="stop-color:#FF5B69"/>
			<stop  offset="0.4421" style="stop-color:#FF288E"/>
			<stop  offset="0.499" style="stop-color:#FF00AA"/>
			<stop  offset="0.509" style="stop-color:#F40FAF"/>
			<stop  offset="0.5454" style="stop-color:#CE41BD"/>
			<stop  offset="0.5846" style="stop-color:#AC6ECB"/>
			<stop  offset="0.6256" style="stop-color:#8F95D6"/>
			<stop  offset="0.6689" style="stop-color:#76B6E0"/>
			<stop  offset="0.7152" style="stop-color:#62D1E8"/>
			<stop  offset="0.7657" style="stop-color:#52E5EE"/>
			<stop  offset="0.8224" style="stop-color:#47F4F3"/>
			<stop  offset="0.8904" style="stop-color:#41FCF5"/>
			<stop  offset="1" style="stop-color:#3FFFF6"/>
		</linearGradient>
		<path class="st8" d="M208.8,134.5c0.4,4.5,3.1,7.6,8.9,7.6c2.9,0,5.4-0.9,8.6-3.1l5,6.8c-3.5,2.9-8.3,5.1-14.8,5.1
			c-11.1,0-17.9-6.5-17.9-17.1c0-11.2,9.1-23,22.9-23c10,0,15.8,6.5,15.8,15c0,2.7-0.7,5.8-1.9,8.8H208.8z M209.8,127.6h16.8
			c0.2-0.7,0.4-1.6,0.4-2.5c0-3.2-1.9-5.7-6.3-5.7C215.6,119.4,211.6,122.7,209.8,127.6z"/>
		<linearGradient id="SVGID_10_" gradientUnits="userSpaceOnUse" x1="6.8643" y1="80.9094" x2="431.3018" y2="80.9094">
			<stop  offset="7.859427e-07" style="stop-color:#FFD215"/>
			<stop  offset="5.856320e-02" style="stop-color:#FFCD18"/>
			<stop  offset="0.1275" style="stop-color:#FFBF23"/>
			<stop  offset="0.2016" style="stop-color:#FFA733"/>
			<stop  offset="0.2795" style="stop-color:#FF864B"/>
			<stop  offset="0.3602" style="stop-color:#FF5B69"/>
			<stop  offset="0.4421" style="stop-color:#FF288E"/>
			<stop  offset="0.499" style="stop-color:#FF00AA"/>
			<stop  offset="0.509" style="stop-color:#F40FAF"/>
			<stop  offset="0.5454" style="stop-color:#CE41BD"/>
			<stop  offset="0.5846" style="stop-color:#AC6ECB"/>
			<stop  offset="0.6256" style="stop-color:#8F95D6"/>
			<stop  offset="0.6689" style="stop-color:#76B6E0"/>
			<stop  offset="0.7152" style="stop-color:#62D1E8"/>
			<stop  offset="0.7657" style="stop-color:#52E5EE"/>
			<stop  offset="0.8224" style="stop-color:#47F4F3"/>
			<stop  offset="0.8904" style="stop-color:#41FCF5"/>
			<stop  offset="1" style="stop-color:#3FFFF6"/>
		</linearGradient>
		<path class="st9" d="M269.9,99.6h11.9l3.5,35.1l22.3-35.1H320l-33.8,50.8h-9.8L269.9,99.6z"/>
		<linearGradient id="SVGID_11_" gradientUnits="userSpaceOnUse" x1="6.8643" y1="80.9094" x2="431.3018" y2="80.9094">
			<stop  offset="7.859427e-07" style="stop-color:#FFD215"/>
			<stop  offset="5.856320e-02" style="stop-color:#FFCD18"/>
			<stop  offset="0.1275" style="stop-color:#FFBF23"/>
			<stop  offset="0.2016" style="stop-color:#FFA733"/>
			<stop  offset="0.2795" style="stop-color:#FF864B"/>
			<stop  offset="0.3602" style="stop-color:#FF5B69"/>
			<stop  offset="0.4421" style="stop-color:#FF288E"/>
			<stop  offset="0.499" style="stop-color:#FF00AA"/>
			<stop  offset="0.509" style="stop-color:#F40FAF"/>
			<stop  offset="0.5454" style="stop-color:#CE41BD"/>
			<stop  offset="0.5846" style="stop-color:#AC6ECB"/>
			<stop  offset="0.6256" style="stop-color:#8F95D6"/>
			<stop  offset="0.6689" style="stop-color:#76B6E0"/>
			<stop  offset="0.7152" style="stop-color:#62D1E8"/>
			<stop  offset="0.7657" style="stop-color:#52E5EE"/>
			<stop  offset="0.8224" style="stop-color:#47F4F3"/>
			<stop  offset="0.8904" style="stop-color:#41FCF5"/>
			<stop  offset="1" style="stop-color:#3FFFF6"/>
		</linearGradient>
		<path class="st10" d="M313.3,140.9l25.5-17.6c4.9-3.4,7.3-6.1,7.3-9.4c0-3.3-2.4-5.2-6.3-5.2c-4.4,0-8.1,2.4-12,6.3L321,108
			c4.9-5.5,11.3-9.1,19.3-9.1c10.4,0,17.2,5.8,17.2,13.9c0,6.2-2.9,10.7-11.9,17l-15.6,10.7h21.2l-2.6,9.6h-37.8L313.3,140.9z"/>
		<linearGradient id="SVGID_12_" gradientUnits="userSpaceOnUse" x1="6.8643" y1="80.9094" x2="431.3018" y2="80.9094">
			<stop  offset="7.859427e-07" style="stop-color:#FFD215"/>
			<stop  offset="5.856320e-02" style="stop-color:#FFCD18"/>
			<stop  offset="0.1275" style="stop-color:#FFBF23"/>
			<stop  offset="0.2016" style="stop-color:#FFA733"/>
			<stop  offset="0.2795" style="stop-color:#FF864B"/>
			<stop  offset="0.3602" style="stop-color:#FF5B69"/>
			<stop  offset="0.4421" style="stop-color:#FF288E"/>
			<stop  offset="0.499" style="stop-color:#FF00AA"/>
			<stop  offset="0.509" style="stop-color:#F40FAF"/>
			<stop  offset="0.5454" style="stop-color:#CE41BD"/>
			<stop  offset="0.5846" style="stop-color:#AC6ECB"/>
			<stop  offset="0.6256" style="stop-color:#8F95D6"/>
			<stop  offset="0.6689" style="stop-color:#76B6E0"/>
			<stop  offset="0.7152" style="stop-color:#62D1E8"/>
			<stop  offset="0.7657" style="stop-color:#52E5EE"/>
			<stop  offset="0.8224" style="stop-color:#47F4F3"/>
			<stop  offset="0.8904" style="stop-color:#41FCF5"/>
			<stop  offset="1" style="stop-color:#3FFFF6"/>
		</linearGradient>
		<path class="st11" d="M360.8,138.4h11.7l-3.1,11.5h-11.7L360.8,138.4z"/>
		<linearGradient id="SVGID_13_" gradientUnits="userSpaceOnUse" x1="6.8643" y1="80.9094" x2="431.3018" y2="80.9094">
			<stop  offset="7.859427e-07" style="stop-color:#FFD215"/>
			<stop  offset="5.856320e-02" style="stop-color:#FFCD18"/>
			<stop  offset="0.1275" style="stop-color:#FFBF23"/>
			<stop  offset="0.2016" style="stop-color:#FFA733"/>
			<stop  offset="0.2795" style="stop-color:#FF864B"/>
			<stop  offset="0.3602" style="stop-color:#FF5B69"/>
			<stop  offset="0.4421" style="stop-color:#FF288E"/>
			<stop  offset="0.499" style="stop-color:#FF00AA"/>
			<stop  offset="0.509" style="stop-color:#F40FAF"/>
			<stop  offset="0.5454" style="stop-color:#CE41BD"/>
			<stop  offset="0.5846" style="stop-color:#AC6ECB"/>
			<stop  offset="0.6256" style="stop-color:#8F95D6"/>
			<stop  offset="0.6689" style="stop-color:#76B6E0"/>
			<stop  offset="0.7152" style="stop-color:#62D1E8"/>
			<stop  offset="0.7657" style="stop-color:#52E5EE"/>
			<stop  offset="0.8224" style="stop-color:#47F4F3"/>
			<stop  offset="0.8904" style="stop-color:#41FCF5"/>
			<stop  offset="1" style="stop-color:#3FFFF6"/>
		</linearGradient>
		<path class="st12" d="M384.6,129.9c0-14.7,9.9-31.2,27-31.2c11.8,0,19.7,8.3,19.7,21c0,14.7-9.9,31.2-27,31.2
			C392.5,150.8,384.6,142.5,384.6,129.9z M419.9,119.6c0-7.1-3.6-10.9-9.1-10.9c-9,0-14.8,11.9-14.8,21.2c0,7.1,3.6,10.9,9.1,10.9
			C414.2,140.8,419.9,128.9,419.9,119.6z"/>
	</g>
</g>
</svg>
